# xmcd
#
# Track frame offsets:
#	150
#	16094
#	31821
#	47363
#	63987
#	83262
#	97203
#	112970
#	129014
#	144926
#
# Disc length: 2107 seconds
#
# Revision: 0
# Processed by: cddbd v1.5.2PL0 Copyright (c) Steve Scherf et al.
# Submitted via: EasyCDDAExtractor 9.1.3.1
#
DISCID=6708390a
DTITLE=Schuyler, Knobloch and Overstreet - SKO
DYEAR=1986
DGENRE=Country
TTITLE0=You Can't Stop Love
TTITLE1=I Go Back
TTITLE2=Baby's Got a New Baby
TTITLE3=Trains Make Me Lonesome
TTITLE4=Country Heart
TTITLE5=A Little More Love
TTITLE6=Somebody's Doin' Me Right
TTITLE7=Bitter Pill To Swallow
TTITLE8=American Me
TTITLE9=Love Is the Hero
EXTD=
EXTT0=
EXTT1=
EXTT2=
EXTT3=
EXTT4=
EXTT5=
EXTT6=
EXTT7=
EXTT8=
EXTT9=
PLAYORDER=
